<svg xmlns="http://www.w3.org/2000/svg" viewBox="0 0 1200 630" fill="none">
  <rect width="1200" height="630" fill="#1e3a5f"/>
  <rect x="40" y="40" width="1120" height="550" rx="20" fill="#0f2440" stroke="#2d5a8e" stroke-width="2"/>
  <!-- Map grid lines -->
  <g opacity="0.15" stroke="#4a90d9" stroke-width="1">
    <line x1="100" y1="100" x2="100" y2="530"/>
    <line x1="250" y1="100" x2="250" y2="530"/>
    <line x1="400" y1="100" x2="400" y2="530"/>
    <line x1="550" y1="100" x2="550" y2="530"/>
    <line x1="700" y1="100" x2="700" y2="530"/>
    <line x1="100" y1="200" x2="700" y2="200"/>
    <line x1="100" y1="300" x2="700" y2="300"/>
    <line x1="100" y1="400" x2="700" y2="400"/>
  </g>
  <!-- Abstract neighborhood shapes -->
  <g opacity="0.6">
    <path d="M150 180 L280 160 L300 250 L200 280 Z" fill="#3b82f6"/>
    <path d="M280 160 L420 140 L440 230 L300 250 Z" fill="#60a5fa"/>
    <path d="M200 280 L300 250 L320 340 L230 360 Z" fill="#2563eb"/>
    <path d="M300 250 L440 230 L460 320 L320 340 Z" fill="#93c5fd"/>
    <path d="M420 140 L560 150 L550 240 L440 230 Z" fill="#1d4ed8"/>
    <path d="M440 230 L550 240 L540 330 L460 320 Z" fill="#3b82f6"/>
    <path d="M230 360 L320 340 L340 430 L260 440 Z" fill="#60a5fa"/>
    <path d="M320 340 L460 320 L470 410 L340 430 Z" fill="#2563eb"/>
    <path d="M460 320 L540 330 L530 420 L470 410 Z" fill="#93c5fd"/>
    <path d="M560 150 L660 180 L640 270 L550 240 Z" fill="#60a5fa"/>
    <path d="M550 240 L640 270 L620 360 L540 330 Z" fill="#3b82f6"/>
  </g>
  <!-- Text -->
  <text x="850" y="260" font-family="system-ui, sans-serif" font-weight="700" font-size="64" fill="white" text-anchor="middle">naapurustot</text>
  <text x="850" y="260" font-family="system-ui, sans-serif" font-weight="700" font-size="64" fill="#3b82f6" text-anchor="middle" dx="315">.fi</text>
  <text x="850" y="320" font-family="system-ui, sans-serif" font-weight="400" font-size="24" fill="#94a3b8" text-anchor="middle">Helsingin seudun naapurustot kartalla</text>
  <text x="850" y="380" font-family="system-ui, sans-serif" font-weight="400" font-size="20" fill="#64748b" text-anchor="middle">35+ mittaria · 160+ naapurustoa · Helsinki · Espoo · Vantaa</text>
</svg>
